<svg viewBox="0 0 800 600" xmlns="http://www.w3.org/2000/svg">
  <defs>
    <style>
      @keyframes hood-bounce {
        0%, 100% { transform: translateY(0); }
        50% { transform: translateY(-3px); }
      }
      @keyframes breathe {
        0%, 100% { transform: translateX(0) translateY(0); }
        50% { transform: translateX(-1px) translateY(-2px); }
      }
      @keyframes warning-blink {
        0%, 100% { opacity: 1; }
        50% { opacity: 0.4; }
      }
      @keyframes smoke-rise {
        0% { opacity: 0.6; transform: translateY(0) scale(1); }
        100% { opacity: 0; transform: translateY(-40px) scale(1.3); }
      }
      .hood-bounce { animation: hood-bounce 3s ease-in-out infinite; }
      .breathe { animation: breathe 3.5s ease-in-out infinite; }
      .warning-blink { animation: warning-blink 1.2s ease-in-out infinite; }
      .smoke { animation: smoke-rise 2.5s ease-out infinite; }
      .smoke-1 { animation-delay: 0s; }
      .smoke-2 { animation-delay: 0.6s; }
      .smoke-3 { animation-delay: 1.2s; }
      .smoke-4 { animation-delay: 1.8s; }
    </style>
    
    <!-- BMW Logo -->
    <g id="bmw-logo">
      <circle cx="0" cy="0" r="18" fill="#FFF" stroke="#000" stroke-width="2"></circle>
      <circle cx="0" cy="0" r="16" fill="none" stroke="#000" stroke-width="1"></circle>
      
      <path d="M 0,-16 A 16,16 0 0,0 0,16 Z" fill="#FFF" data-index="1"></path>
      <path d="M -16,0 A 16,16 0 0,1 16,0 Z" fill="#0066B1" data-index="2"></path>
      
      <circle cx="0" cy="0" r="5" fill="none" stroke="#000" stroke-width="1.5"></circle>
    </g>
  </defs>
  
  <!-- Warning Barricade (behind car) -->
  <g id="warning-barricade" class="warning-blink">
    <rect x="480" y="520" width="120" height="12" fill="#FF6600" stroke="#8B0000" stroke-width="2" rx="2"></rect>
    <rect x="485" y="525" width="110" height="2" fill="#FFFF00"></rect>
    <rect x="535" y="480" width="10" height="52" fill="#FF6600" stroke="#8B0000" stroke-width="2"></rect>
    <rect x="490" y="532" width="100" height="8" fill="#8B0000" rx="2"></rect>
    <path d="M 490 525 L 500 525 L 510 520 L 520 525 L 530 525 L 540 520 L 550 525 L 560 525 L 570 520 L 580 525 L 590 525" stroke="#FFFF00" stroke-width="3" fill="none" data-index="4"></path>
  </g>
  
  <!-- Car Group (side angle) -->
  <g id="car-group">
    <!-- Shadow -->
    <ellipse cx="380" cy="565" rx="200" ry="25" fill="#000" opacity="0.15"></ellipse>
    
    <!-- Rear Tire -->
    <g id="rear-tire">
      <circle cx="480" cy="530" r="45" fill="#1a1a1a" stroke="#000" stroke-width="3"></circle>
      <circle cx="480" cy="530" r="32" fill="#2a2a2a"></circle>
      <circle cx="480" cy="530" r="18" fill="#3a3a3a"></circle>
      <circle cx="480" cy="530" r="8" fill="#4a4a4a"></circle>
      <line x1="480" y1="512" x2="480" y2="548" stroke="#555" stroke-width="2"></line>
      <line x1="462" y1="530" x2="498" y2="530" stroke="#555" stroke-width="2"></line>
    </g>
    
    <!-- Main Body (angled view) -->
    <path d="M 180 490 L 170 510 L 170 530 L 540 530 L 550 510 L 545 490 Z" fill="#FF4D4D" stroke="#8B0000" stroke-width="3" data-index="5" style="opacity: 1;"></path>
    
    <!-- Bottom trim -->
    <rect x="170" y="520" width="380" height="15" fill="#8B0000" rx="3"></rect>
    
    <!-- Side body detail with angle -->
    <path d="M 200 500 L 520 500 L 530 515 L 190 515 Z" fill="#FF6B6B" data-index="6" style="opacity: 1;"></path>
    <line x1="360" y1="500" x2="365" y2="530" stroke="#8B0000" stroke-width="2"></line>
    
    <!-- Roof/Cabin (angled) -->
    <path d="M 260 490 L 280 420 L 460 420 L 485 490 Z" fill="#FF4D4D" stroke="#8B0000" stroke-width="3" data-index="7"></path>
    
    <!-- Windows (angled perspective) -->
    <path d="M 270 485 L 285 430 L 365 430 L 365 485 Z" fill="#ADD8E6" opacity="0.5" stroke="#2c2c2c" stroke-width="2" data-index="8"></path>
    <path d="M 375 485 L 375 430 L 455 430 L 475 485 Z" fill="#ADD8E6" opacity="0.5" stroke="#2c2c2c" stroke-width="2" data-index="9"></path>
    
    <!-- Window frames -->
    <line x1="370" y1="430" x2="370" y2="490" stroke="#2c2c2c" stroke-width="3"></line>
    
    <!-- Side Mirror -->
    <ellipse cx="495" cy="455" rx="22" ry="12" fill="#8B0000" stroke="#2c2c2c" stroke-width="2"></ellipse>
    <ellipse cx="495" cy="455" rx="15" ry="8" fill="#ADD8E6" opacity="0.4"></ellipse>
    <line x1="485" y1="455" x2="475" y2="465" stroke="#2c2c2c" stroke-width="2"></line>
    
    <!-- Front bumper and grille (angled) -->
    <path d="M 170 480 L 150 485 L 145 530 L 170 530 Z" fill="#8B0000" stroke="#000" stroke-width="2" data-index="10"></path>
    <rect x="155" y="495" width="15" height="12" fill="#2a2a2a"></rect>
    <rect x="155" y="512" width="15" height="12" fill="#2a2a2a"></rect>
    
    <!-- Headlights -->
    <ellipse cx="162" cy="501" rx="8" ry="10" fill="#FFFACD" stroke="#8B0000" stroke-width="2"></ellipse>
    <ellipse cx="162" cy="520" rx="8" ry="10" fill="#FFFACD" stroke="#8B0000" stroke-width="2"></ellipse>
    
    <!-- Rear lights (angled) -->
    <path d="M 540 495 L 550 495 L 552 525 L 540 525 Z" fill="#8B0000" data-index="11"></path>
    <rect x="543" y="498" width="5" height="12" fill="#FF0000"></rect>
    <rect x="543" y="513" width="5" height="12" fill="#FF0000"></rect>
    
    <!-- Front Tire (partially visible) -->
    <g id="front-tire">
      <ellipse cx="240" cy="530" rx="40" ry="45" fill="#1a1a1a" stroke="#000" stroke-width="3"></ellipse>
      <ellipse cx="240" cy="530" rx="28" ry="32" fill="#2a2a2a"></ellipse>
      <ellipse cx="240" cy="530" rx="16" ry="18" fill="#3a3a3a"></ellipse>
    </g>
    
    <!-- Hood (Half Open with angle) -->
    <g class="hood-bounce">
      <path d="M 180 490 L 170 475 L 175 445 L 195 435 L 215 440 L 225 465 L 220 490 Z" fill="#FF4D4D" stroke="#8B0000" stroke-width="3" data-index="12"></path>
      <path d="M 185 490 L 178 475 L 183 455 L 200 448 L 215 455 L 215 490 Z" fill="#FF6B6B" data-index="13"></path>
      
      <!-- BMW Logo on hood -->
      <use href="#bmw-logo" x="197" y="465"></use>
      
      <!-- Hood gap/shadow -->
      <line x1="180" y1="490" x2="225" y2="490" stroke="#000" stroke-width="2" opacity="0.5"></line>
      
      <!-- Hood prop/support -->
      <line x1="195" y1="435" x2="200" y2="490" stroke="#666" stroke-width="2"></line>
    </g>
    
    <!-- Door handles (angled) -->
    <rect x="310" y="495" width="28" height="8" fill="#2c2c2c" rx="3"></rect>
    <rect x="420" y="495" width="28" height="8" fill="#2c2c2c" rx="3"></rect>
  </g>
  
  <!-- Smoke from engine -->
  <g id="smoke-group">
    <ellipse class="smoke smoke-1" cx="190" cy="445" rx="25" ry="20" fill="#808080" opacity="0.5"></ellipse>
    <ellipse class="smoke smoke-2" cx="185" cy="435" rx="28" ry="22" fill="#909090" opacity="0.5"></ellipse>
    <ellipse class="smoke smoke-3" cx="195" cy="425" rx="30" ry="24" fill="#808080" opacity="0.5"></ellipse>
    <ellipse class="smoke smoke-4" cx="188" cy="415" rx="26" ry="21" fill="#909090" opacity="0.5"></ellipse>
  </g>
  
  <!-- Man Group -->
  <g id="man-group" class="breathe">
    <!-- Shadow -->
    <ellipse cx="630" cy="565" rx="40" ry="15" fill="#000" opacity="0.15"></ellipse>
    
    <!-- Shoes -->
    <ellipse cx="615" cy="560" rx="15" ry="8" fill="#555555"></ellipse>
    <ellipse cx="645" cy="560" rx="15" ry="8" fill="#555555"></ellipse>
    
    <!-- Legs -->
    <path d="M 615 555 L 618 470 L 630 470 L 630 555" fill="#2B2B2B" stroke="#1a1a1a" stroke-width="2" data-index="14" style="opacity: 1;"></path>
    <path d="M 630 470 L 642 470 L 645 555 L 645 555" fill="#2B2B2B" stroke="#1a1a1a" stroke-width="2" data-index="15"></path>
    
    <!-- Belt -->
    <rect x="615" y="468" width="30" height="8" fill="#4a4a4a" rx="1"></rect>
    <rect x="628" y="468" width="6" height="8" fill="#8B8B8B"></rect>
    
    <!-- Torso -->
    <path d="M 610 470 L 605 400 L 605 380 L 655 380 L 655 400 L 650 470 Z" fill="#3366CC" stroke="#1a4d99" stroke-width="2" data-index="16" style="opacity: 1; visibility: visible; fill: rgb(12, 88, 187);"></path>
    
    <!-- Collar -->
    <path d="M 615 380 L 622 370 L 638 370 L 645 380" fill="#2952a3" stroke="#1a4d99" stroke-width="1" data-index="17"></path>
    
    <!-- Button line -->
    <line x1="630" y1="380" x2="630" y2="470" stroke="#2952a3" stroke-width="2"></line>
    <circle cx="630" cy="395" r="3" fill="#1a4d99"></circle>
    <circle cx="630" cy="415" r="3" fill="#1a4d99"></circle>
    <circle cx="630" cy="435" r="3" fill="#1a4d99"></circle>
    <circle cx="630" cy="455" r="3" fill="#1a4d99"></circle>
    
    <!-- Arms -->
    <path d="M 605 390 L 585 400 L 585 460 L 595 465" fill="#3366CC" stroke="#1a4d99" stroke-width="2" data-index="18" style="opacity: 1; visibility: visible; fill: rgb(12, 88, 187); stroke-width: 2px; stroke: rgb(12, 88, 187);"></path>
    <path d="M 655 390 L 675 400 L 675 460 L 665 465" fill="#3366CC" stroke="#1a4d99" stroke-width="2" data-index="19" style="opacity: 1; visibility: visible; fill: rgb(12, 88, 187); stroke: rgb(12, 88, 187);"></path>
    
    <!-- Hands -->
    <ellipse cx="593" cy="468" rx="10" ry="12" fill="#F2C9A0"></ellipse>
    <ellipse cx="667" cy="468" rx="10" ry="12" fill="#F2C9A0"></ellipse>
    
    <!-- Neck -->
    <rect x="622" y="365" width="16" height="18" fill="#F2C9A0"></rect>
    
    <!-- Head -->
    <ellipse cx="630" cy="340" rx="30" ry="35" fill="#F2C9A0" stroke="#d4a574" stroke-width="2"></ellipse>
    
    <!-- Ears (reduced size) -->
    <ellipse cx="605" cy="340" rx="5" ry="8" fill="#F2C9A0" stroke="#d4a574" stroke-width="1"></ellipse>
    <ellipse cx="655" cy="340" rx="5" ry="8" fill="#F2C9A0" stroke="#d4a574" stroke-width="1"></ellipse>
    
    <!-- Hair (fuller, more realistic) -->
    <ellipse cx="630" cy="315" rx="32" ry="25" fill="#654321"></ellipse>
    <path d="M 598 325 Q 602 305 610 308 Q 615 300 625 305 Q 630 298 635 305 Q 645 300 650 308 Q 658 305 662 325" fill="#654321" data-index="20"></path>
    <ellipse cx="615" cy="318" rx="18" ry="15" fill="#654321"></ellipse>
    <ellipse cx="645" cy="318" rx="18" ry="15" fill="#654321"></ellipse>
    <path d="M 600 330 Q 610 310 620 315 Q 630 308 640 315 Q 650 310 660 330" fill="#654321" data-index="21"></path>
    
    <!-- Hair strands for detail -->
    <path d="M 608 310 Q 612 305 616 310" stroke="#553311" stroke-width="1" fill="none" data-index="22"></path>
    <path d="M 628 305 Q 630 300 632 305" stroke="#553311" stroke-width="1" fill="none" data-index="23"></path>
    <path d="M 645 310 Q 648 305 651 310" stroke="#553311" stroke-width="1" fill="none" data-index="24"></path>
    
    <!-- Eyebrows (sad, angled down) -->
    <path d="M 610 330 L 620 333" stroke="#654321" stroke-width="3" stroke-linecap="round" data-index="25"></path>
    <path d="M 640 333 L 650 330" stroke="#654321" stroke-width="3" stroke-linecap="round" data-index="26"></path>
    
    <!-- Eyes (sad) -->
    <ellipse cx="615" cy="340" rx="5" ry="7" fill="#FFF"></ellipse>
    <ellipse cx="645" cy="340" rx="5" ry="7" fill="#FFF"></ellipse>
    <circle cx="615" cy="342" r="3" fill="#2c2c2c"></circle>
    <circle cx="645" cy="342" r="3" fill="#2c2c2c"></circle>
    
    <!-- Nose -->
    <path d="M 630 345 L 632 355 L 628 355" stroke="#d4a574" stroke-width="2" fill="none" stroke-linecap="round" data-index="27"></path>
    
    <!-- Mouth (sad frown) -->
    <path d="M 618 365 Q 630 360 642 365" stroke="#2c2c2c" stroke-width="2.5" fill="none" stroke-linecap="round" data-index="28"></path>
  </g>
</svg>